<?xml version="1.0" encoding="utf-8"?>
<!-- Generator: Adobe Illustrator 17.1.0, SVG Export Plug-In . SVG Version: 6.00 Build 0)  -->
<!DOCTYPE svg PUBLIC "-//W3C//DTD SVG 1.1//EN" "http://www.w3.org/Graphics/SVG/1.1/DTD/svg11.dtd">
<svg version="1.1" id="Layer_1" xmlns="http://www.w3.org/2000/svg" xmlns:xlink="http://www.w3.org/1999/xlink" x="0px" y="0px"
	 viewBox="0 0 200 400" enable-background="new 0 0 200 400" xml:space="preserve">
<g display="none">
	<path display="inline" fill="#010101" d="M51.8,292.3l26.7-38.9h43.1l26.7,38.9h14.5l-26.9-39.2c9.1-1.6,16-9.5,16-19v-94.2
		c0-10.7-8.6-19.3-19.3-19.3h-16.3v-6.5c0-3.6-2.9-6.5-6.5-6.5s-6.5,2.9-6.5,6.5v6.5h-9.7v-6.5c0-3.6-2.9-6.5-6.5-6.5
		s-6.5,2.9-6.5,6.5v6.5H64.2c-10.7,0-19.3,8.6-19.3,19.3v94.2c0,10.6,8.5,19.2,19.1,19.3l-26.7,38.9L51.8,292.3L51.8,292.3z
		 M124.9,236.6c-5.5,0-10-4.5-10-10s4.5-10,10-10c5.5,0,10,4.5,10,10C135,232.1,130.5,236.6,124.9,236.6z M70.9,198.4H126
		c1.8,0,3.2,1.5,3.2,3.2c0,1.8-1.5,3.2-3.2,3.2H70.9c-1.8,0-3.2-1.5-3.2-3.2C67.6,199.8,69.1,198.4,70.9,198.4z M67.6,191.9
		c0-1.8,1.5-3.2,3.2-3.2h55.1c1.8,0,3.2,1.5,3.2,3.2c0,1.7-1.5,3.2-3.2,3.2h-55C69.1,195.1,67.6,193.7,67.6,191.9z M57.9,143.2
		c0-5.3,4.3-9.6,9.6-9.6H87h22.7h19.5c5.3,0,9.6,4.3,9.6,9.6V166c0,5.3-4.3,9.7-9.6,9.7H67.5c-5.3,0-9.6-4.3-9.6-9.6V143.2z
		 M59.4,226.5c0-5.5,4.5-10,10-10s10,4.5,10,10s-4.5,10-10,10C63.9,236.6,59.4,232.1,59.4,226.5z"/>
</g>
<g>
	<polygon fill="#FFFFFF" points="37,299 37,308 46,308 46,299 46,290 37,290 	"/>
	<polygon fill="#FFFFFF" points="46,281 46,290 55,290 55,281 55,272 46,272 	"/>
	<path fill="#FFFFFF" d="M163,128v-9h-9v-9h-9h-9v-9v-9h-9v9v9h-9h-9h-9h-9h-9v-9v-9h-9v9v9h-9h-9h-9v9h-9v9h-9v9v9v9v9v9v9v9v9v9v9
		v9v9h9v9h9v9h9v9v9h9v-9v-9h9h9h9h9h9h9h9h9v9v9h9v-9v-9h9v-9h9v-9h9v-9v-9v-9v-9v-9v-9v-9v-9v-9v-9v-9v-9H163z M145,236h-9h-9v-9
		v-9h9h9v9V236z M145,155v9v9h-9v9h-9h-9h-9h-9h-9h-9h-9h-9v-9h-9v-9v-9v-9h9v-9h9h9h9h9h9h9h9h9v9h9V155z M145,209h-9h-9h-9h-9h-9
		h-9h-9h-9h-9h-9v-9h9h9h9h9h9h9h9h9h9h9V209z M55,227v-9h9h9v9v9h-9h-9V227z"/>
	<polygon fill="#FFFFFF" points="154,308 163,308 163,299 163,290 154,290 154,299 	"/>
	<polygon fill="#FFFFFF" points="145,290 154,290 154,281 154,272 145,272 145,281 	"/>
</g>
</svg>
