<?xml version="1.0" encoding="utf-8"?>
<!-- Generator: Adobe Illustrator 17.1.0, SVG Export Plug-In . SVG Version: 6.00 Build 0)  -->
<!DOCTYPE svg PUBLIC "-//W3C//DTD SVG 1.1//EN" "http://www.w3.org/Graphics/SVG/1.1/DTD/svg11.dtd">
<svg version="1.1" id="Layer_1" xmlns="http://www.w3.org/2000/svg" xmlns:xlink="http://www.w3.org/1999/xlink" x="0px" y="0px"
	 viewBox="0 0 200 400" enable-background="new 0 0 200 400" xml:space="preserve">
<g display="none">
	<path display="inline" fill="#010101" d="M23,182.4c-4.9,0-8.8,3.9-8.8,8.8v39.6c0,4.9,3.9,8.8,8.8,8.8h154c4.9,0,8.8-3.9,8.8-8.8
		v-39.6c0-4.9-3.9-8.8-8.8-8.8h-1.4c-3.7-9.8-14.2-37.5-19.3-47.4c-6.2-12.2-17.6-14.7-23.6-14.2H70.3c-12.7,0-20.5,8.5-23.1,13.6
		l-20.2,48H23z M168.7,215.2c0,5.6-4.6,10.2-10.2,10.2s-10.2-4.6-10.2-10.2s4.6-10.2,10.2-10.2S168.7,209.5,168.7,215.2z
		 M59.1,140.3c0.6-1,4.1-6.3,11.2-6.3H133h0.7c0.1,0,7-0.6,10.9,7c4.1,8,12.4,29.6,16.9,41.4H41.3L59.1,140.3z M44.2,205
		c5.6,0,10.2,4.6,10.2,10.2s-4.6,10.2-10.2,10.2S34,220.8,34,215.2C34,209.5,38.6,205,44.2,205z"/>
	<path display="inline" fill="#010101" d="M40.6,279.2h8.8c4.9,0,8.8-3.9,8.8-8.8V244H31.8v26.4C31.8,275.3,35.7,279.2,40.6,279.2z"
		/>
	<path display="inline" fill="#010101" d="M150.6,279.2h8.8c4.9,0,8.8-3.9,8.8-8.8V244h-26.4v26.4
		C141.8,275.3,145.7,279.2,150.6,279.2z"/>
</g>
<g>
	<path fill="#FFFFFF" d="M190,200v-9v-9v-9h-9v-9v-9h-9v-9v-9h-9v-9v-9h-9v-9h-9v-9h-9h-9h-9h-9h-9h-9h-9h-9h-9h-9v9h-9v9h-9v9v9h-9
		v9v9h-9v9v9h-9v9v9v9H1v9v9v9v9h9v9h9v9h9h9h9h9h9h9h9h9h9h9h9h9h9h9h9h9h9h9v-9h9v-9h9v-9v-9v-9v-9H190z M37,227v-9h9h9v9v9h-9h-9
		V227z M145,227v-9h9h9v9v9h-9h-9V227z M37,173v-9v-9h9v-9v-9h9v-9v-9h9h9h9h9h9h9h9h9h9h9v9v9h9v9v9h9v9v9h9v9v9h-9h-9h-9h-9h-9h-9
		h-9h-9h-9h-9h-9h-9h-9h-9h-9h-9v-9v-9H37z"/>
	<polygon fill="#FFFFFF" points="37,263 37,272 37,281 37,290 37,299 46,299 55,299 55,290 55,281 55,272 55,263 46,263 	"/>
	<polygon fill="#FFFFFF" points="145,263 145,272 145,281 145,290 145,299 154,299 163,299 163,290 163,281 163,272 163,263 
		154,263 	"/>
</g>
</svg>
