<?xml version="1.0" encoding="utf-8"?>
<!-- Generator: Adobe Illustrator 17.1.0, SVG Export Plug-In . SVG Version: 6.00 Build 0)  -->
<!DOCTYPE svg PUBLIC "-//W3C//DTD SVG 1.1//EN" "http://www.w3.org/Graphics/SVG/1.1/DTD/svg11.dtd">
<svg version="1.1" id="Layer_1" xmlns="http://www.w3.org/2000/svg" xmlns:xlink="http://www.w3.org/1999/xlink" x="0px" y="0px"
	 viewBox="0 0 35 35" enable-background="new 0 0 35 35" xml:space="preserve">
<path fill="#0C7CC1" d="M30.1,0.3H4.8c-2.6,0-4.6,2-4.6,4.6v25.3c0,2.6,2,4.6,4.6,4.6h25.3c2.6,0,4.6-2,4.6-4.6V4.9
	C34.8,2.3,32.7,0.3,30.1,0.3z M4.8,3.1h25.3c1,0,1.7,0.7,1.7,1.7v6.9h-7.3c-1.8-1.8-4.3-2.9-7.1-2.9s-5.3,1.1-7.1,2.9H3.1V4.9
	C3.1,3.8,3.8,3.1,4.8,3.1z M24.7,18.9c0,4-3.2,7.2-7.2,7.2s-7.2-3.2-7.2-7.2s3.2-7.2,7.2-7.2S24.7,14.9,24.7,18.9z M27.3,16.6
	c0,0.1,0,0.2,0.1,0.2C27.3,16.8,27.3,16.7,27.3,16.6z M27.4,17.4c0,0.2,0.1,0.3,0.1,0.5C27.5,17.7,27.5,17.6,27.4,17.4z M7.5,17.9
	c0-0.2,0-0.3,0.1-0.5C7.5,17.6,7.5,17.7,7.5,17.9z M7.6,16.9c0-0.1,0-0.2,0.1-0.2C7.7,16.7,7.7,16.8,7.6,16.9z M24.7,9.9V5
	c0-0.3,0.1-0.4,0.4-0.4H30c0.3,0,0.4,0.1,0.4,0.4v4.9c0,0.3-0.1,0.4-0.4,0.4h-4.9C24.8,10.3,24.7,10.2,24.7,9.9z M21.8,18.9
	c0,2.4-1.9,4.3-4.3,4.3s-4.3-1.9-4.3-4.3c0-0.4,0.1-0.9,0.1-1.3c0.4,0.7,1.2,1.3,2,1.3c1.2,0,2.2-1,2.2-2.2c0-0.9-0.6-1.7-1.3-2
	c0.4,0,0.9-0.1,1.3-0.1C19.9,14.6,21.8,16.5,21.8,18.9z"/>
</svg>
