<?xml version="1.0" encoding="utf-8"?>
<!-- Generator: Adobe Illustrator 17.1.0, SVG Export Plug-In . SVG Version: 6.00 Build 0)  -->
<!DOCTYPE svg PUBLIC "-//W3C//DTD SVG 1.1//EN" "http://www.w3.org/Graphics/SVG/1.1/DTD/svg11.dtd">
<svg version="1.1" id="Layer_1" xmlns="http://www.w3.org/2000/svg" xmlns:xlink="http://www.w3.org/1999/xlink" x="0px" y="0px"
	 viewBox="0 0 767 220" enable-background="new 0 0 767 220" xml:space="preserve">
<g>
	<g>
		<g>
			<path fill="#007BC1" d="M16.8,106.9c0-0.1,36.8-21.4,36.8-21.4s22.2,12.7,37,21.4v73.5l-14.7,8.4l-22.2-13.1l-21.9,13v0.1
				l-14.9-8.5V106.9z M17.7,107.5c34.9,20.2,36.1,20.8,36.1,20.8c0-0.1,31.2-18.1,36.1-20.9L53.6,86.3L17.7,107.5z M31.7,187.9
				l21.6-12.8v-11.8l-7.8-4.6v-21.6l-13.8-7.7V187.9z M53.9,163.5v11.6l21.9,13v-58.5L62,137.4v21.4L53.9,163.5z"/>
			<path fill="#007BC1" d="M99.4,106.9l36.8-21.4l36.8,21.4v14.6l-7.8,4.3l7.8,4.6v12.8l-8.4,4.9l8.4,4.9v15.2l-0.3,0.1l-36.5,20.5
				l-36.8-20.6V106.9z M100,107.4l36.2,20.3l22.1-12.2l14-8.1l-36.1-21.1L100,107.4z M122.5,134.8l-7.8,4.4l21.5,12.5l35.9-21.1
				l-7.7-4.4l-28.3,15.9L122.5,134.8z M114.7,130.2v8.2l7.2-4.1L114.7,130.2z M121.8,156.9l-7.1,4.1l21.5,13.3l35.9-21.1l-8.2-4.7
				l-27.7,16.3L121.8,156.9z M114.7,152.7v7.5l6.5-3.7L114.7,152.7z"/>
			<path fill="#007BC1" d="M255.5,168.1l-36.8,20.6l-36.8-20.6v-61.1l36.8-21.4l36.8,21.4v14.6l-21.1,11.8v6.9l21.1,12.4V168.1z
				 M254.7,107.4l-36.1-21.1l-36.2,21.1l36.2,20.2L254.7,107.4z M197.2,129.9v31.4l36.5-21.1l0.4,0.4l-36.2,21.1l20.8,10.7
				l35.9-19.6l-20.9-12.2v-6.9l-15,8.4L197.2,129.9z"/>
			<path fill="#007BC1" d="M337.9,168.1l-36.8,20.6l-36.8-20.6v-61.1l36.8-21.4l36.8,21.4v14.6l-21.1,11.8v6.9l21.1,12.4V168.1z
				 M337.2,107.4l-36.1-21.1l-36.2,21.1l36.2,20.2L337.2,107.4z M279.6,129.9v31.4l36.5-21.1l0.4,0.4l-36.2,21.1l20.8,10.7
				l35.9-19.6l-20.9-12.2v-6.9l-15,8.4L279.6,129.9z"/>
			<path fill="#007BC1" d="M420.4,180.1l-14.7,8.5l-22.1-13l-22.1,13l-14.7-8.5v-73.2l36.8-21.4l36.8,21.4V180.1z M419.6,107.4
				l-36.1-21.1l-36.2,21.1l36.2,20.3L419.6,107.4z M362.1,127.9v9.7l8.4-4.9L362.1,127.9z M383.6,150.8l21.5-12.7l-9-5.4l-12.5,7.2
				l-12.5-6.8l-9,5.2L383.6,150.8z M362.1,150.8v36.8l21.2-12.5v-11.9L362.1,150.8z M383.9,175.1l21.2,12.5v-36.8l-21.2,12.4V175.1z
				 M405.1,137.4v-9.7l-8.4,4.7L405.1,137.4z"/>
			<path fill="#007BC1" d="M488.1,162.7l-44.2,25.9l-14.7-8.5v-73.2L466,85.6l36.8,21.4v13.5l-16,9.7l9.4,5.4v13l-8.1,4.7V162.7z
				 M466,128.1l36.1-20.8L466,86.3l-36.2,21.1L466,128.1z M444.5,130.1v9.7l8.4-4.9L444.5,130.1z M466,153l29.3-17.1l-9.3-5.4
				l-20,11.6l-12.5-6.8l-9,5.2L466,153z M466,166.3l-21.5-12.5v33.9l43-25.2v-8.7L466,166.3z"/>
			<path fill="#007BC1" d="M511.7,106.9l36.8-21.4l36.8,21.4v14.6l-7.8,4.3l7.8,4.6v12.8l-8.4,4.9l8.4,4.9v15.2l-0.3,0.1l-36.5,20.5
				l-36.8-20.6V106.9z M512.3,107.4l36.2,20.3l22.1-12.2l14-8.1l-36.1-21.1L512.3,107.4z M534.8,134.8l-7.8,4.4l21.5,12.5l35.9-21.1
				l-7.7-4.4l-28.3,15.9L534.8,134.8z M527,130.2v8.2l7.2-4.1L527,130.2z M534.1,156.9L527,161l21.5,13.3l35.9-21.1l-8.2-4.7
				l-27.7,16.3L534.1,156.9z M527,152.7v7.5l6.5-3.7L527,152.7z"/>
			<path fill="#007BC1" d="M667.8,168.1L631,188.7l-36.8-20.6v-15.3l7.8-4.6l-7.8-4.6v-36.7L631,85.6l36.8,21.4v13.8l-8.2,4.9
				l8.2,4.9V168.1z M667.2,107.4L631,86.3l-36.2,21.1l36.2,20.3L667.2,107.4z M631,164.8l-28.3-16.3l-8,4.7l36.2,21.1l21.4-12.5
				l-7.8-4.7L631,164.8z M609.5,138.3l7.5-4.3l-7.5-4.4V138.3z M631,142.1l-13.4-7.8l-7.8,4.6l21.2,12.8l35.9-20.9l-8-4.7L631,142.1
				z M652.4,161v-8.4l-7.4,4.1L652.4,161z"/>
			<path fill="#007BC1" d="M750.2,123.1L724,138.6v43.9l-10.6,6.2l-10.6-6.2v-43.9l-26.2-16.8v-14.9l36.8-21.4l36.8,21.4V123.1z
				 M713.4,128.3l36.2-20.9l-36.2-21.1l-36.2,21.1L713.4,128.3z"/>
		</g>
		<g>
			<g>
				<path fill="#007BC1" d="M356.2,39.5l-15.7,9.3V75l-6.3,3.7l-6.3-3.7V48.7l-15.7-10v-8.9l22-12.8l22,12.8V39.5z M334.2,42.6
					l21.7-12.5l-21.7-12.6l-21.7,12.6L334.2,42.6z"/>
				<path fill="#007BC1" d="M361.5,29.8l22-12.8l22,12.8v43.8l-8.8,5.1l-13.2-7.8l-13.2,7.8l-8.8-5.1V29.8z M396.7,34.9l8.5-4.8
					l-21.7-12.6l-21.7,12.6l8.5,4.8l13.2-7.8L396.7,34.9z M370.6,48.1l12.7-7.5v-13l-12.7,7.5V48.1z M370.6,48.6l12.9,7.5l12.8-7.5
					L383.5,41L370.6,48.6z M370.6,56v22.1l12.7-7.5v-7.1L370.6,56z M383.7,40.6l12.7,7.5v-13l-12.7-7.5V40.6z M383.7,63.5v7.1
					l12.7,7.5v-22L383.7,63.5z"/>
				<path fill="#007BC1" d="M410.8,29.8l22-12.8l22,12.8v8.7l-4.7,2.6l4.7,2.7v7.7l-5,2.9l5,2.9v9.1l-0.2,0.1l-21.9,12.2l-22-12.3
					V29.8z M411.2,30.1l21.7,12.2l13.2-7.3l8.4-4.8l-21.6-12.6L411.2,30.1z M424.7,46.4l-4.7,2.6l12.9,7.5L454.4,44l-4.6-2.6
					l-16.9,9.5L424.7,46.4z M420,43.7v4.9l4.3-2.5L420,43.7z M424.2,59.7l-4.2,2.5l12.9,7.9l21.5-12.6l-4.9-2.8l-16.6,9.8
					L424.2,59.7z M420,57.2v4.5l3.9-2.2L420,57.2z"/>
			</g>
		</g>
	</g>
	<text transform="matrix(1 0 0 1 727.492 200.6787)" fill="#007BC1" font-family="'Helvetica-Bold'" font-size="12">TM</text>
</g>
</svg>
