<?xml version="1.0" encoding="utf-8"?>
<!-- Generator: Adobe Illustrator 17.1.0, SVG Export Plug-In . SVG Version: 6.00 Build 0)  -->
<!DOCTYPE svg PUBLIC "-//W3C//DTD SVG 1.1//EN" "http://www.w3.org/Graphics/SVG/1.1/DTD/svg11.dtd">
<svg version="1.1" id="Layer_1" xmlns="http://www.w3.org/2000/svg" xmlns:xlink="http://www.w3.org/1999/xlink" x="0px" y="0px"
	 viewBox="0 0 200 200" style="enable-background:new 0 0 200 200;" xml:space="preserve">
<style type="text/css">
	.st0{fill:#0E75A8;}
</style>
<path class="st0" d="M196,17.3V30v12.7v12.7v25.3v76.7V170v12.7h-12.7v12.7h-12.7H158H42.7H30H17.3v-12.7H4V170v-12.7v-102V42.7V30
	V17.3h12.7V4h12.7H42h12.7h76.7H144h12.7h12.7H182v12.7h14V17.3z M170,30h-12.7h-12.7v12.7v12.7h12.7H170V42.7V30z M132,119.3v-12.7
	V93.3V80.7h-12.7V68h-12.7H81.3v12.7H68.7v12.7v13.3v12.7h12.7V132h12h13.3h12.7v-12.7H132z M182.7,80.7H170h-12.7v12.7v13.3v12.7
	V132h-12.7v12.7H132v12.7h-12.7h-12.7H93.3H80.7H68v-12.7H55.3V132H42.7v-12.7v-12.7V93.3V80.7H30H17.3v76.7V170H30v12.7h12.7h114.7
	H170V170h12.7v-12.7V80.7z"/>
</svg>
