<?xml version="1.0" encoding="utf-8"?>
<!-- Generator: Adobe Illustrator 17.1.0, SVG Export Plug-In . SVG Version: 6.00 Build 0)  -->
<!DOCTYPE svg PUBLIC "-//W3C//DTD SVG 1.1//EN" "http://www.w3.org/Graphics/SVG/1.1/DTD/svg11.dtd">
<svg version="1.1" id="Layer_1" xmlns="http://www.w3.org/2000/svg" xmlns:xlink="http://www.w3.org/1999/xlink" x="0px" y="0px"
	 viewBox="0 0 200 200" enable-background="new 0 0 200 200" xml:space="preserve">
<polygon fill="#F49540" points="190.1,76.5 190.1,67.5 181.1,67.5 181.1,58.5 172.1,58.5 172.1,49.5 163.1,49.5 154.1,49.5 
	145.1,49.5 136.1,49.5 127.1,49.5 118.1,49.5 109.1,49.5 100.1,49.5 91.1,49.5 82.1,49.5 73.1,49.5 64.1,49.5 55.1,49.5 46.1,49.5 
	37.1,49.5 28.1,49.5 28.1,58.5 19.1,58.5 19.1,67.5 10.1,67.5 10.1,76.5 1.1,76.5 1.1,85.5 1.1,94.5 1.1,103.5 1.1,112.5 1.1,121.5 
	10.1,121.5 10.1,130.5 19.1,130.5 19.1,139.5 28.1,139.5 28.1,148.5 37.1,148.5 46.1,148.5 55.1,148.5 64.1,148.5 73.1,148.5 
	82.1,148.5 91.1,148.5 100.1,148.5 109.1,148.5 118.1,148.5 127.1,148.5 136.1,148.5 145.1,148.5 154.1,148.5 163.1,148.5 
	172.1,148.5 172.1,139.5 181.1,139.5 181.1,130.5 190.1,130.5 190.1,121.5 199.1,121.5 199.1,112.5 199.1,103.5 199.1,94.5 
	199.1,85.5 199.1,76.5 "/>
<polygon fill="#FBB04B" points="163,77 163,68 154,68 145,68 136,68 127,68 118,68 109,68 100,68 91,68 82,68 73,68 64,68 55,68 
	46,68 37,68 37,77 28,77 28,86 28,95 28,104 28,113 28,122 37,122 37,131 46,131 55,131 64,131 73,131 82,131 91,131 100,131 
	109,131 118,131 127,131 136,131 145,131 154,131 163,131 163,122 172,122 172,113 172,104 172,95 172,86 172,77 "/>
<g>
	<path fill="#FFFFFF" d="M79.3,85.6h-1.6V84v-1.6h-8h-8V84v1.6h-1.6h-1.6v4.5v5.1v4.5v5.1v4.5h1.6h1.6v1.6v1.6h8h8v-1.6v-1.6h1.6
		h1.6v-4.8v-4.8h-1.6h-1.6v-1.3v-0.3v-1.3v-0.3v-1.3h1.6h1.6v-4.8v-4.8H79.3z M64.9,85.6h4.8h4.8v4.8v4.8h-4.8h-4.8v-1.9v-2.9v-0.3
		V85.6z M74.5,104.5v4.8h-4.8h-4.8v-4.5v-0.3v-2.9v-1.9h4.8h4.8V104.5z"/>
	<path fill="#FFFFFF" d="M119.2,101.3v-4.8h3.2h3.2v4.8v4.8h4.8h4.8v-4.8v-4.8h3.2h3.2v8v8H140h-1.6v1.6v1.6h-8h-8v-1.6v-1.6h6.4
		h6.4v-1.6v-1.6h-6.4h-6.4v-1.6v-1.6h-1.6h-1.6V101.3z"/>
	<path fill="#FFFFFF" d="M88.9,102.9v-6.4h3.2h3.2v6.4v6.4h4.8h4.8v-6.4v-6.4h3.2h3.2v8v8h-9.6h-9.6v-1.6v-1.6h-1.6h-1.6V102.9z"/>
</g>
</svg>
